<?xml version="1.0" standalone="no"?>
<!DOCTYPE svg PUBLIC "-//W3C//DTD SVG 20010904//EN"
 "http://www.w3.org/TR/2001/REC-SVG-20010904/DTD/svg10.dtd">
<svg version="1.0" xmlns="http://www.w3.org/2000/svg"
 width="168.000000pt" height="46.000000pt" viewBox="0 0 168.000000 46.000000"
 preserveAspectRatio="xMidYMid meet">
<metadata>
Created by potrace 1.16, written by Peter Selinger 2001-2019
</metadata>
<g transform="translate(0.000000,46.000000) scale(0.100000,-0.100000)"
fill="#000000" stroke="none">
<path d="M20 230 l0 -210 215 0 215 0 0 210 0 210 -215 0 -215 0 0 -210z"/>
<path d="M1020 230 l0 -140 30 0 30 0 0 65 c0 57 3 66 24 80 19 13 29 14 45 5
18 -9 21 -20 21 -80 l0 -70 30 0 30 0 0 79 c0 98 -17 125 -76 125 -22 0 -47
-4 -56 -8 -16 -7 -18 -2 -18 38 0 44 -1 46 -30 46 l-30 0 0 -140z"/>
<path d="M1550 230 l0 -140 30 0 30 0 0 140 0 140 -30 0 -30 0 0 -140z"/>
<path d="M510 225 l0 -135 30 0 c28 0 30 3 30 35 0 33 2 35 33 35 26 0 36 -7
55 -35 17 -27 29 -35 52 -35 17 0 30 2 30 6 0 3 -11 21 -25 41 l-24 36 24 23
c27 25 34 79 14 116 -16 30 -71 48 -149 48 l-70 0 0 -135z"/>
<path d="M810 289 c-33 -14 -33 -14 -20 -38 9 -17 15 -19 30 -11 25 14 63 13
78 -2 21 -21 13 -28 -29 -28 -85 0 -127 -52 -79 -100 23 -23 88 -28 108 -8 9
9 12 9 12 0 0 -7 13 -12 30 -12 l30 0 0 74 c0 64 -3 79 -23 101 -26 30 -94 42
-137 24z"/>
<path d="M1287 293 c-11 -10 -8 -117 4 -152 6 -17 19 -36 29 -41 25 -13 83
-13 97 1 8 8 13 8 17 0 4 -6 18 -11 32 -11 24 0 24 0 24 106 l0 105 -27 -3
c-27 -3 -28 -5 -31 -68 -3 -71 -13 -90 -48 -90 -32 0 -44 27 -44 99 0 57 -1
61 -23 61 -13 0 -27 -3 -30 -7z"/>
</g>
</svg>
